<svg xmlns="http://www.w3.org/2000/svg" width="154" height="652" viewBox="0 0 154 652" fill="none">
<line id="Line 4" x1="139.153" y1="655.195" x2="617.237" y2="281.675" stroke="url(#paint0_linear_0_1)" stroke-width="6" />
<g id="rope">
<g id="Group 17">
<path id="Vector 31" d="M70.4644 509.023C67.5161 522.002 66.7281 524.552 65.8442 527.213C65.0978 529.459 64.1724 532.81 63.5822 536.254C62.169 544.499 60.631 546.881 59.5006 552.236C58.3531 557.673 57.4791 561.542 56.7442 564.299C56.1544 566.511 56.0035 570.679 55.6611 573.988C55.3469 577.024 54.7286 581.103 54.3818 584.463C53.8808 589.317 53.253 592.43 52.9549 596.507C52.5257 602.377 52.3646 604.341 52.2171 608.44C52.0906 611.953 52.1669 618.383 52.0695 622.327C51.9407 627.544 51.5767 632.348 51.6741 637.952C51.7404 641.769 52.6568 643.491 53.1969 644.921C53.9917 647.026 58.9429 645.563 60.7682 645.957C61.213 646.053 61.6993 646.153 62.0475 646.009C63.53 645.393 62.5964 642.039 62.5448 633.645C62.5249 630.411 63.3756 627.874 63.9702 625.651C64.0882 625.21 64.1665 624.816 64.314 624.81C65.9132 624.746 65.1522 635.258 64.8586 640.884C64.8038 641.933 64.562 643.878 65.4385 646.384C66.4599 649.303 70.2637 648.809 71.0487 649.105C71.4306 649.248 71.8337 649.205 72.0344 648.231C72.6254 645.363 72.1377 642.718 71.9901 640.031C71.6772 634.333 71.8426 630.028 71.695 626.416C71.3488 617.941 71.8396 611.633 72.1347 610.308C72.7669 607.47 72.9197 603.284 73.1691 593.464C73.2625 589.787 73.6103 587.047 73.7594 580.908C73.8376 577.686 74.3953 573.778 74.6447 568.063C74.6563 567.797 75.2807 573.017 75.9683 580.733C76.3532 585.051 76.6619 586.734 76.7593 588.055C76.9365 590.458 77.2521 594.873 77.3008 599.495C77.3229 601.589 77.5472 605.102 77.4985 610.165C77.4496 615.254 77.0573 619.587 76.9083 626.894C76.8206 631.194 76.4671 634.933 76.4155 640.477C76.3837 643.89 76.8566 647.033 77.5915 648.805C78.5899 651.213 81.5727 649.99 83.4909 650.335C84.0276 650.432 84.6183 650.385 85.1141 650.288C87.9412 649.733 87.7761 643.019 88.2188 640.705C88.8145 637.592 89.0569 636.42 89.3491 636.268C91.9739 634.903 91.5123 641.514 91.9579 643.738C92.4344 646.116 92.5984 647.529 92.8418 648.07C93.1422 648.738 94.4635 647.83 95.1511 647.291C97.1944 645.691 96.0394 640.859 96.2859 638.486C96.5192 636.239 97.9076 642.506 98.3989 643.64C99.2862 645.689 98.6011 638.492 98.2071 636.816C97.3314 633.09 98.1053 626.882 98.4506 624.281C99.0281 619.929 98.7959 618.129 99.0408 614.062C99.6484 603.975 98.7959 601.413 98.2573 598.356C97.9432 596.573 97.5209 595.009 97.2716 593.091C96.9802 590.85 96.4349 588.522 96.1413 586.548C95.7485 583.907 95.6499 581.138 95.5009 579.073C95.3651 577.19 95.0596 575.041 94.6657 573.316C94.2331 571.423 94.1743 569.434 93.7316 566.779C93.2337 563.794 92.8935 561.666 92.4036 558.664C91.9972 556.173 92.0081 554.578 91.7145 552.267C91.3964 549.764 91.2231 546.609 90.8778 544.985C90.4754 543.092 90.0426 541.102 89.8449 539.426C89.6405 537.694 89.1572 535.79 88.567 533.624C87.989 531.503 87.1917 528.707 86.6487 526.102C86.0609 523.281 85.2262 520.94 84.5829 518.769C83.9942 516.783 83.55 515.032 82.9597 513.358C82.5999 512.338 82.6646 511.289 82.2234 510.504C81.757 509.675 80.8968 509.026 79.9643 508.486C78.3381 507.94 76.5733 508.332 71.9577 508.384L70.4644 509.023Z" fill="#7C2D45" stroke="black" stroke-width="3" stroke-linecap="round" stroke-linejoin="round" />
<path id="Vector 32" d="M84.2466 526.617C84.7296 530.717 84.889 532.326 85.0508 534.136C85.2723 536.614 85.7729 539.325 86.1376 541.977C86.9831 548.129 86.4201 551.231 86.6206 554.335C86.8136 557.325 86.5819 559.698 86.4612 561.817C86.2091 566.24 86.4998 569.44 86.6206 571.079C87.0859 577.394 86.9031 581.723 87.1036 585.011C87.3268 588.673 87.3861 590.286 87.5866 592.214C88.0622 596.786 87.8691 602.719 88.0696 606.989C88.1903 608.805 88.3521 610.249 88.5924 611.821C88.6733 612.186 88.753 612.505 88.8351 612.833" stroke="black" stroke-width="3" stroke-linecap="round" stroke-linejoin="round" />
</g>
<g id="Group 19">
<path id="Star 3" d="M77 445.252C77.3019 447.645 77.6803 450.344 78.1494 453.185C78.9406 457.975 79.9888 463.181 81.3535 468C82.7144 472.804 84.4076 477.287 86.5127 480.59C90.7566 487.251 97.4412 490.349 102.968 491.788C103.312 491.877 103.653 491.961 103.988 492.039C103.653 492.116 103.312 492.2 102.968 492.29C97.4412 493.728 90.7566 496.826 86.5127 503.487C84.4076 506.791 82.7144 511.273 81.3535 516.078C79.9888 520.896 78.9406 526.102 78.1494 530.892C77.6803 533.732 77.3018 536.432 77 538.824C76.6982 536.432 76.3197 533.732 75.8506 530.892C75.0594 526.102 74.0112 520.896 72.6465 516.078C71.2856 511.273 69.5924 506.791 67.4873 503.487C63.2434 496.826 56.5588 493.728 51.0322 492.29C50.6874 492.2 50.3466 492.116 50.0107 492.039C50.3466 491.961 50.6874 491.877 51.0322 491.788C56.5588 490.349 63.2434 487.251 67.4873 480.59C69.5924 477.287 71.2856 472.804 72.6465 468C74.0112 463.181 75.0594 457.975 75.8506 453.185C76.3197 450.344 76.6981 447.645 77 445.252Z" fill="#EFF6FF" stroke="black" stroke-width="2" />
<g id="Ellipse 31">
<circle cx="77" cy="492.539" r="77" fill="url(#paint1_radial_0_1)" style="mix-blend-mode:hard-light" />
</g>
</g>
<g id="Group 20">
<path id="Vector 30" d="M76.0004 435.576C77.3335 435.551 78.6666 435.526 79.9997 435.501C80.0401 428.286 80.116 420.976 80.2107 413.759C80.7125 378.011 81.5129 342.244 82.9984 306.676C82.9984 306.676 82.9984 306.676 82.9984 306.676C84.2686 277.126 86.1547 247.663 87.4637 218.067C88.6624 190.963 89.516 163.827 89.7207 136.624C89.9814 98.3182 89.4012 60.0201 88.5468 21.7669C88.3798 14.4929 88.2 7.23861 87.9998 1.14366e-06C85.3333 0.0257267 82.6667 0.0514523 80.0002 0.0771778C79.9335 7.29957 79.8601 14.5556 79.787 21.823C79.3774 60.042 79.0622 98.3353 78.2793 136.453C77.7047 163.523 76.6718 190.483 75.4751 217.544C74.1684 247.088 73.3153 276.728 73.0022 306.401C73.0022 306.401 73.0022 306.401 73.0022 306.401C72.6691 342.277 73.8679 378.043 75.155 413.819C75.4239 421.041 75.7028 428.348 76.0004 435.576Z" fill="black" />
<circle id="Ellipse 30" cx="77" cy="445.539" r="14" fill="#D8B45A" stroke="#7C2D45" stroke-width="2" />
</g>
</g>
<defs>
<linearGradient id="paint0_linear_0_1" x1="141.308" y1="657.953" x2="619.392" y2="284.433" gradientUnits="userSpaceOnUse">
<stop stop-color="#95C1FB" stop-opacity="0" />
<stop offset="0.278846" stop-color="#95C1FB" />
<stop offset="0.834135" stop-color="#95C1FB" />
<stop offset="1" stop-color="white" stop-opacity="0" />
</linearGradient>
<radialGradient id="paint1_radial_0_1" cx="0" cy="0" r="1" gradientUnits="userSpaceOnUse" gradientTransform="translate(77 492.539) rotate(90) scale(77)">
<stop stop-color="#FF4800" />
<stop offset="1" stop-color="white" stop-opacity="0" />
</radialGradient>
</defs>
</svg>