<svg xmlns="http://www.w3.org/2000/svg" width="1920" height="2879" viewBox="0 0 1920 2879" fill="none"><g id="Group 13_2">
<path id="Star 4_5" d="M463.396 656.06C463.373 655.963 463.353 655.865 463.329 655.767C462.692 653.104 461.627 649.905 459.91 648.045C458.448 646.461 456.298 645.607 454.349 645.141C454.088 645.079 453.829 645.024 453.575 644.974C453.829 644.925 454.088 644.871 454.349 644.808C456.298 644.343 458.448 643.488 459.91 641.905C461.627 640.045 462.692 636.846 463.329 634.183C463.353 634.085 463.373 633.986 463.396 633.889V656.06Z" fill="#D8B45A" stroke="#D8B45A" stroke-width="0.808424" />
<path id="Star 5_4" d="M714.006 656.06C714.029 655.963 714.049 655.865 714.073 655.767C714.71 653.104 715.775 649.905 717.492 648.045C718.953 646.461 721.104 645.607 723.053 645.141C723.314 645.079 723.573 645.024 723.827 644.974C723.573 644.925 723.314 644.871 723.053 644.808C721.104 644.343 718.953 643.488 717.492 641.905C715.775 640.045 714.71 636.846 714.073 634.183C714.049 634.085 714.029 633.986 714.006 633.889V656.06Z" fill="#D8B45A" stroke="#D8B45A" stroke-width="0.808424" />
</g>
</svg>